<svg version="1" xmlns="http://www.w3.org/2000/svg" width="3480" height="3480" viewBox="0 0 2610.000000 2610.000000"><path d="M305 1205v1200h200v200h1800V205h-200V5H305v1200zm1800 100v1100H505V205h1600v1100z"/><path d="M737 865v525h130.8c129.7 0 149-.4 172.2-3.6 37.7-5.1 75-18.1 99.9-34.9 53.6-36 83.2-92.5 92.3-176 1.9-17.6 1.9-603.4 0-621-9.1-83.5-38.7-140-92.3-176-24.9-16.8-62.2-29.8-99.9-34.9-23.2-3.2-42.5-3.6-172.2-3.6H737v525zm276.3-371.7c14.4 4.4 22.4 9 31.9 18.3 13.8 13.5 21.5 34 23.8 63.7 1.3 16.3 1.3 563.1 0 579.4-2.3 29.7-10 50.2-23.8 63.7-9.5 9.3-17.5 13.9-31.9 18.3l-8.8 2.7-51.7.4-51.8.3V489.9l51.8.3 51.7.4 8.8 2.7zM1357 865v525h164l.2-236.3.3-236.2h177l.3 236.2.2 236.3h164V340h-164l-.2 213.7-.3 213.8h-177l-.3-213.8-.2-213.7h-164v525zM984 1548.7c-39.2 3.7-62.5 8.4-93.2 18.9-55.5 19.1-103.3 49.5-144.8 92-17.7 18.2-29 32.1-42.5 52.4-32.3 48.5-51.1 100.7-56.5 157.1-1.3 13.4-1.3 47.4 0 60.9 9.9 104 68.8 199.9 160 260.7 135 90 309.4 79.7 435.5-25.7 10.7-9 28.6-26.1 28.3-27-.2-.5-23.9-22-52.8-47.9l-52.5-47.1-12.5 12.4c-15.2 15-28.3 25.3-44.2 34.8-73.9 43.7-159.8 37.3-228.7-17.1-15.8-12.4-34.6-33.3-48-53.4-25.6-38.3-39.3-91.6-35.2-137.2 5.1-56.9 30-107 72.5-146.3 83.1-76.8 202.8-73.1 284.1 8.6l12 12.1 52.5-47.1c28.9-25.9 52.6-47.4 52.8-47.8.1-.4-4.6-5.4-10.5-11.1-69.5-67-160.4-103.5-255.3-102.7-9.6.1-19.1.3-21 .5zM1362 1900v340h146v-221h107.6l77.8 110.5 77.8 110.5h166l-1.8-2.8c-1-1.5-38.2-54.4-82.7-117.6-44.5-63.2-81.1-115.5-81.3-116.1-.3-.8 2.6-2.5 7.8-4.5 31.7-12.6 59.6-30.8 81.9-53.2 17.5-17.6 30.1-35.2 40.9-57.3 13.4-27.3 20-53.2 22-85.4 4.8-81.3-31-153.8-98.2-198.7-36.1-24.1-81.7-39.3-130.3-43.4-7.5-.6-72.7-1-172.7-1H1362v340zm325.8-203.2c57.3 13 88.4 48.2 85.9 97.5-2.2 44.9-33.6 77.1-85.4 87.6-16.5 3.4-34.8 4.1-109.5 4.1H1508v-192.1l85.3.4c82.4.3 85.5.4 94.5 2.5z"/></svg>